<svg width="37" height="10" viewBox="0 0 37 10" fill="none" xmlns="http://www.w3.org/2000/svg">
<path d="M8.72888 2.24921L7.53851 3.42749C6.78522 2.62988 5.90704 2.23108 4.90399 2.23108C4.02985 2.23108 3.29669 2.52112 2.70453 3.1012C2.11639 3.68127 1.82233 4.38623 1.82233 5.21606C1.82233 6.0741 2.12848 6.80121 2.74078 7.3974C3.35309 7.99359 4.1084 8.29169 5.00671 8.29169C5.59082 8.29169 6.08228 8.16882 6.48108 7.9231C6.88391 7.67737 7.20819 7.29266 7.45392 6.76898H4.87982V5.17981H9.35126L9.36334 5.55444C9.36334 6.33191 9.16193 7.06909 8.75909 7.76599C8.35626 8.46289 7.83459 8.99463 7.19409 9.36121C6.55359 9.72778 5.80231 9.91107 4.94025 9.91107C4.01776 9.91107 3.19397 9.71167 2.46887 9.31287C1.7478 8.91003 1.17578 8.33801 0.752808 7.5968C0.333862 6.85559 0.12439 6.05597 0.12439 5.19794C0.12439 4.02167 0.513123 2.99847 1.29059 2.12836C2.21307 1.09308 3.41351 0.575439 4.89191 0.575439C5.66534 0.575439 6.38843 0.718445 7.06116 1.00446C7.62915 1.24615 8.18506 1.66107 8.72888 2.24921ZM10.9102 0.799011H12.7048C13.6757 0.799011 14.3746 0.889648 14.8016 1.07092C15.2326 1.24817 15.571 1.53821 15.8167 1.94104C16.0665 2.33984 16.1913 2.81921 16.1913 3.37915C16.1913 3.99951 16.0282 4.51514 15.7019 4.92603C15.3796 5.33691 14.9406 5.62292 14.3846 5.78406C14.0583 5.87671 13.4642 5.92303 12.6021 5.92303V9.6875H10.9102V0.799011ZM12.6021 4.27344H13.1399C13.5629 4.27344 13.8569 4.24323 14.0221 4.1828C14.1873 4.12238 14.3162 4.02368 14.4088 3.88672C14.5055 3.74573 14.5538 3.57654 14.5538 3.37915C14.5538 3.03674 14.4209 2.78699 14.155 2.62988C13.9617 2.51306 13.6031 2.45465 13.0795 2.45465H12.6021V4.27344ZM17.1763 0.799011H18.844L20.125 6.4729L21.7142 0.799011H23.1221L24.7294 6.4729L25.9983 0.799011H27.666L25.666 9.6875H24.0405L22.403 3.9411L20.7957 9.6875H19.1884L17.1763 0.799011ZM31.7024 0.799011H33.4185L36.8385 9.6875H35.0801L34.3853 7.85663H30.7598L30.0347 9.6875H28.2763L31.7024 0.799011ZM32.5725 3.15558L31.3882 6.20703H33.7508L32.5725 3.15558Z" fill="#DDDFFF"/>
</svg>
