<svg width="21" height="39" viewBox="0 0 21 39" fill="none" xmlns="http://www.w3.org/2000/svg">
<path fill-rule="evenodd" clip-rule="evenodd" d="M13.5837 0.983792C12.1368 1.81745 11.2806 3.32327 11.2806 4.91117C11.2806 5.74483 11.6218 6.58542 12.0494 7.33486C12.3906 8.00435 12.5579 9.17328 11.367 9.75855C10.5167 10.2575 9.40512 9.92486 8.89604 9.08906C8.38751 8.41958 7.79042 7.74956 7.02219 7.25064C5.57537 6.41698 3.86886 6.41698 2.42204 7.25064C0.975222 8.0843 0.120605 9.59384 0.120605 11.1823C0.120605 12.7707 0.970875 14.276 2.4215 15.1118C3.86831 15.9454 5.57483 15.9454 7.02164 15.1118C7.79042 14.6928 8.38697 14.0276 8.80966 13.2734C9.15085 12.6881 10.0891 11.9339 11.2806 12.6039C12.1303 13.1028 12.3862 14.1939 11.963 15.0276C11.536 15.7813 11.2806 16.6176 11.2806 17.4513C11.2806 19.0413 12.1303 20.545 13.5837 21.3786C15.0305 22.2123 16.737 22.2123 18.1838 21.3786C19.6306 20.545 20.4874 19.0392 20.4874 17.4513C20.4874 15.8634 19.635 14.3575 18.1838 13.5218C17.4156 13.1028 16.5631 12.9365 15.627 12.9365C14.8583 12.9365 13.839 12.4376 13.839 11.1823C13.839 10.178 14.6078 9.42807 15.627 9.42807C16.4773 9.42807 17.415 9.26177 18.1838 8.8428C19.6306 8.00914 20.4874 6.50333 20.4874 4.91543C20.4874 3.32753 19.635 1.82172 18.1838 0.988056C17.5014 0.569094 16.6512 0.402788 15.8829 0.402788C15.119 0.398524 14.2622 0.569094 13.5842 0.983792H13.5837Z" fill="#7E77AC"/>
<path d="M1.52246 38.5253L3.79823 34.9818L1.60852 31.5253H3.75042L4.87874 33.3622L6.01662 31.5253H8.15852L5.96881 34.9818L8.24457 38.5253H6.07399L4.87874 36.6231L3.69304 38.5253H1.52246Z" fill="#7E77AC"/>
<path d="M8.72648 38.5253V31.5253H11.9298C12.4334 31.5253 12.8445 31.6303 13.1633 31.8405C13.4884 32.0506 13.7306 32.3441 13.89 32.7209C14.0494 33.0905 14.129 33.5216 14.129 34.0144C14.129 34.4854 14.0239 34.9021 13.8135 35.2644C13.6095 35.6195 13.3354 35.8912 12.9912 36.0796C13.0613 36.1448 13.1218 36.2245 13.1728 36.3187C13.2238 36.4057 13.2812 36.5289 13.3449 36.6883L14.0525 38.5253H12.1784L11.5282 36.8405C11.4772 36.7101 11.4134 36.6195 11.3369 36.5687C11.2668 36.5108 11.1648 36.4818 11.0309 36.4818H10.5241V38.5253H8.72648ZM10.5241 34.9166H11.4708C11.7322 34.9166 11.933 34.8405 12.0732 34.6883C12.2198 34.5289 12.2931 34.3043 12.2931 34.0144C12.2931 33.3985 12.0381 33.0905 11.5282 33.0905H10.5241V34.9166Z" fill="#7E77AC"/>
<path d="M14.7961 38.5253V31.5253H17.9707C18.4743 31.5253 18.8887 31.6412 19.2138 31.8731C19.5453 32.0977 19.7907 32.4057 19.9501 32.797C20.1094 33.1883 20.1891 33.6231 20.1891 34.1014C20.1891 34.5941 20.0967 35.0325 19.9118 35.4166C19.727 35.8006 19.4656 36.1014 19.1277 36.3187C18.7899 36.5361 18.3915 36.6448 17.9325 36.6448H16.5938V38.5253H14.7961ZM16.5938 35.0796H17.5213C17.8018 35.0796 18.009 34.989 18.1429 34.8079C18.2831 34.6267 18.3532 34.3912 18.3532 34.1014C18.3532 33.7898 18.2895 33.5434 18.162 33.3622C18.0345 33.1811 17.8369 33.0905 17.5691 33.0905H16.5938V35.0796Z" fill="#7E77AC"/>
</svg>
