<svg width="26" height="37" viewBox="0 0 26 37" fill="none" xmlns="http://www.w3.org/2000/svg">
<path d="M8.96596 6.29441H3.09009V0.87146H21.6054V6.29441H15.7295V10.1291H8.96596V6.29441Z" fill="#7E77AC"/>
<path d="M16.0509 11.9808H9.26196V19.3869H16.0509V11.9808Z" fill="#7E77AC"/>
<path d="M17.1248 7.81061C18.3108 7.9035 19.7341 8.39264 20.3614 8.78045C21.16 9.27349 21.6054 9.86461 21.6054 10.5304C21.6054 11.6283 20.3739 12.5305 18.384 13.1015C16.8105 13.553 14.6737 13.8323 12.3477 13.8323C10.0218 13.8323 7.88495 13.553 6.31148 13.1015C4.32093 12.5305 3.09009 11.6283 3.09009 10.5304C3.09009 9.79706 3.6271 9.15721 4.57526 8.64014C5.3139 8.23739 6.34311 7.9009 7.56341 7.66055L7.62534 9.46836C5.758 9.83668 6.08021 10.7097 7.43822 11.0995C8.66576 11.4516 10.4 11.6698 12.3484 11.6698C14.2968 11.6698 16.031 11.4516 17.2586 11.0995C18.9058 10.6266 18.3108 9.7347 17.0629 9.43199L17.1255 7.81061H17.1248Z" fill="#7E77AC"/>
<path d="M3.60992 36.5253C3.00255 36.5253 2.46604 36.4234 2.00039 36.2195C1.54149 36.0087 1.18044 35.703 0.917251 35.3024C0.654058 34.8947 0.522461 34.3958 0.522461 33.8054V29.6307H2.42555V33.5945C2.42555 34.4239 2.82034 34.8385 3.60992 34.8385C3.98784 34.8385 4.27803 34.7366 4.48049 34.5328C4.68294 34.329 4.78417 34.0162 4.78417 33.5945V29.6307H6.68726V33.8054C6.68726 34.3958 6.55566 34.8947 6.29247 35.3024C6.03603 35.703 5.67498 36.0087 5.20933 36.2195C4.75043 36.4234 4.21729 36.5253 3.60992 36.5253Z" fill="#7E77AC"/>
<path d="M9.6882 36.5253C9.24955 36.5253 8.83451 36.4901 8.4431 36.4198C8.05168 36.3425 7.71763 36.2371 7.44094 36.1036V34.4695C7.74462 34.6171 8.08205 34.7366 8.45322 34.828C8.82439 34.9193 9.17194 34.965 9.49587 34.965C9.8333 34.965 10.0864 34.9369 10.2551 34.8807C10.4305 34.8174 10.5183 34.6804 10.5183 34.4695C10.5183 34.322 10.4677 34.206 10.3664 34.1217C10.272 34.0373 10.1201 33.96 9.91091 33.8897C9.70845 33.8194 9.44188 33.7316 9.1112 33.6262C8.67255 33.4786 8.325 33.3169 8.06855 33.1412C7.81211 32.9655 7.62652 32.7512 7.5118 32.4982C7.40382 32.2451 7.34983 31.9359 7.34983 31.5704C7.34983 30.9028 7.57591 30.3968 8.02806 30.0524C8.48696 29.701 9.16519 29.5253 10.0627 29.5253C10.4204 29.5253 10.7882 29.5569 11.1661 29.6201C11.5508 29.6834 11.8612 29.7537 12.0974 29.831V31.4756C11.7803 31.342 11.4766 31.2472 11.1864 31.1909C10.8962 31.1347 10.6229 31.1066 10.3664 31.1066C10.0695 31.1066 9.81643 31.1312 9.60722 31.1804C9.39802 31.2296 9.29341 31.3561 9.29341 31.5599C9.29341 31.7356 9.38114 31.8656 9.55661 31.95C9.73882 32.0273 10.0594 32.1292 10.5183 32.2557C11.0514 32.4033 11.4563 32.5825 11.733 32.7933C12.0165 33.0042 12.2088 33.2502 12.31 33.5313C12.4112 33.8054 12.4619 34.1181 12.4619 34.4695C12.4619 35.088 12.2324 35.587 11.7735 35.9665C11.3146 36.339 10.6195 36.5253 9.6882 36.5253Z" fill="#7E77AC"/>
<path d="M13.1673 36.4198V29.6307H16.0827C16.7508 29.6307 17.321 29.7467 17.7934 29.9786C18.2658 30.2035 18.6269 30.5689 18.8766 31.075C19.1263 31.574 19.2511 32.2381 19.2511 33.0674C19.2511 34.2341 18.9778 35.0845 18.4312 35.6186C17.8845 36.1528 17.1017 36.4198 16.0827 36.4198H13.1673ZM15.0704 34.9018H15.8397C16.1569 34.9018 16.4235 34.8561 16.6394 34.7647C16.8554 34.6663 17.0207 34.4871 17.1354 34.2271C17.2502 33.96 17.3075 33.5735 17.3075 33.0674C17.3075 32.5614 17.2535 32.1714 17.1456 31.8973C17.0443 31.6161 16.8857 31.4229 16.6698 31.3174C16.4538 31.205 16.1771 31.1488 15.8397 31.1488H15.0704V34.9018Z" fill="#7E77AC"/>
<path d="M21.2871 36.4198V31.1066H19.4549V29.6307H25.0225V31.1066H23.1902V36.4198H21.2871Z" fill="#7E77AC"/>
</svg>
