<svg width="31" height="39" viewBox="0 0 31 39" fill="none" xmlns="http://www.w3.org/2000/svg">
<g filter="url(#filter0_d_3426_22)">
<path fill-rule="evenodd" clip-rule="evenodd" d="M12.516 2.88797L11.032 10.0747L8.35003 10.7172L7.4978 14.9701L10.1502 14.3444L8.82358 20.7696H23.5939L24.7787 16.233H15.418L16.1681 12.9249L19.8066 12.0665L20.4696 7.81359L17.1461 8.60986L18.4471 2.87146L12.516 2.88797Z" fill="#7E77AC"/>
<path fill-rule="evenodd" clip-rule="evenodd" d="M18.3349 2.87146L17.0217 8.48813L20.3868 7.70629L19.67 12.1655L15.9639 13.0134L15.2545 16.0476H24.7787L23.507 20.7696H8.23618L9.5765 14.4744L6.88062 15.0911L7.80249 10.6299L10.5303 9.9963L12.0438 2.88844L18.3349 2.87146ZM12.2475 3.13638L10.743 10.2021L8.01621 10.8355L7.20485 14.7619L9.90324 14.1446L8.54561 20.5211H23.3141L24.452 16.2961H14.9387L15.7547 12.8062L19.4486 11.9611L20.0802 8.03278L16.6862 8.82133L18.0189 3.1208L12.2475 3.13638Z" fill="#252045"/>
</g>
<path d="M8.52246 38.4198V31.6307H10.3918V36.9018H13.2755V38.4198H8.52246Z" fill="#7E77AC"/>
<path d="M14.2845 38.4198V33.1066H12.4847V31.6307H17.9537V33.1066H16.1539V38.4198H14.2845Z" fill="#7E77AC"/>
<path d="M21.7203 38.5253C20.5602 38.5253 19.6753 38.2231 19.0654 37.6186C18.4555 37.0142 18.1506 36.1603 18.1506 35.0569C18.1506 33.9183 18.4489 33.0469 19.0455 32.4424C19.6421 31.831 20.5304 31.5253 21.7104 31.5253C22.1081 31.5253 22.4628 31.5569 22.7743 31.6201C23.0859 31.6834 23.3842 31.7713 23.6692 31.8837V33.6126C23.0991 33.3455 22.4893 33.212 21.8396 33.212C21.2364 33.212 20.7889 33.3596 20.4973 33.6548C20.2056 33.9429 20.0597 34.4103 20.0597 35.0569C20.0597 35.6894 20.2122 36.1463 20.5171 36.4274C20.8287 36.7015 21.2762 36.8385 21.8595 36.8385C22.1777 36.8385 22.486 36.8069 22.7843 36.7436C23.0892 36.6804 23.3908 36.582 23.6891 36.4485V38.1879C23.4041 38.2933 23.1025 38.3742 22.7843 38.4304C22.4727 38.4936 22.1181 38.5253 21.7203 38.5253Z" fill="#7E77AC"/>
<defs>
<filter id="filter0_d_3426_22" x="0.880615" y="0.87146" width="29.8982" height="29.8981" filterUnits="userSpaceOnUse" color-interpolation-filters="sRGB">
<feFlood flood-opacity="0" result="BackgroundImageFix"/>
<feColorMatrix in="SourceAlpha" type="matrix" values="0 0 0 0 0 0 0 0 0 0 0 0 0 0 0 0 0 0 127 0" result="hardAlpha"/>
<feOffset dy="4"/>
<feGaussianBlur stdDeviation="3"/>
<feComposite in2="hardAlpha" operator="out"/>
<feColorMatrix type="matrix" values="0 0 0 0 0 0 0 0 0 0 0 0 0 0 0 0 0 0 0.25 0"/>
<feBlend mode="normal" in2="BackgroundImageFix" result="effect1_dropShadow_3426_22"/>
<feBlend mode="normal" in="SourceGraphic" in2="effect1_dropShadow_3426_22" result="shape"/>
</filter>
</defs>
</svg>
