<svg width="28" height="40" viewBox="0 0 28 40" fill="none" xmlns="http://www.w3.org/2000/svg">
<g filter="url(#filter0_d_3426_21)">
<path fill-rule="evenodd" clip-rule="evenodd" d="M11.499 18.9473V15.659H14.813C15.6666 15.659 16.4447 16.3926 16.4447 17.3031C16.4447 18.2137 15.7167 18.9473 14.813 18.9473H11.499ZM10.5873 2.63757H14.6516V4.07269H14.863C17.8758 4.07269 20.4362 6.67834 20.4362 9.7135C20.4362 11.0037 19.9594 12.1926 19.2313 13.1283C20.5118 14.1655 21.3654 15.7592 21.3654 17.4795C21.3654 20.49 18.8301 23.0447 15.8423 23.0447H14.6516V24.2387H10.5873V23.0447H6.55322V4.07269H10.5873V2.63757ZM11.499 11.4848V8.19649H13.8837C14.7874 8.19649 15.5155 8.93009 15.5155 9.84063C15.5155 10.7512 14.7874 11.4848 13.8837 11.4848H11.499Z" fill="#7E77AC"/>
</g>
<path d="M4.52246 39.6669V32.8778H8.25439C8.94314 32.8778 9.46674 33.0394 9.82517 33.3627C10.1836 33.686 10.3628 34.1498 10.3628 34.7543C10.3628 35.1057 10.2961 35.4009 10.1625 35.6398C10.036 35.8788 9.86734 36.0685 9.6565 36.2091C9.94465 36.3215 10.1731 36.4867 10.3417 36.7046C10.5174 36.9154 10.6053 37.2317 10.6053 37.6534C10.6053 38.2929 10.4085 38.7884 10.0149 39.1398C9.62136 39.4912 9.06262 39.6669 8.33873 39.6669H4.52246ZM6.43059 35.5871H7.71674C8.20168 35.5871 8.44415 35.3692 8.44415 34.9335C8.44415 34.7156 8.38441 34.5505 8.26493 34.438C8.15248 34.3256 7.95218 34.2693 7.66403 34.2693H6.43059V35.5871ZM6.43059 38.2859H7.80107C8.06814 38.2859 8.26493 38.2297 8.39144 38.1172C8.51794 38.0048 8.58119 37.8185 8.58119 37.5585C8.58119 37.3406 8.51794 37.1755 8.39144 37.063C8.26493 36.9506 8.05409 36.8943 7.75891 36.8943H6.43059V38.2859Z" fill="#7E77AC"/>
<path d="M12.5669 39.6669V34.3537H10.6587V32.8778H16.4569V34.3537H14.5488V39.6669H12.5669Z" fill="#7E77AC"/>
<path d="M20.4504 39.7723C19.2204 39.7723 18.2822 39.4701 17.6356 38.8657C16.989 38.2613 16.6657 37.4074 16.6657 36.304C16.6657 35.1654 16.982 34.2939 17.6145 33.6895C18.247 33.0781 19.1888 32.7723 20.4398 32.7723C20.8615 32.7723 21.2375 32.804 21.5678 32.8672C21.8981 32.9305 22.2144 33.0183 22.5166 33.1308V34.8597C21.9122 34.5926 21.2656 34.4591 20.5769 34.4591C19.9373 34.4591 19.4629 34.6067 19.1537 34.9019C18.8444 35.19 18.6898 35.6574 18.6898 36.304C18.6898 36.9365 18.8515 37.3933 19.1748 37.6744C19.5051 37.9485 19.9795 38.0856 20.5979 38.0856C20.9353 38.0856 21.2621 38.054 21.5784 37.9907C21.9017 37.9275 22.2214 37.8291 22.5377 37.6955V39.435C22.2355 39.5404 21.9157 39.6212 21.5784 39.6775C21.248 39.7407 20.872 39.7723 20.4504 39.7723Z" fill="#7E77AC"/>
<defs>
<filter id="filter0_d_3426_21" x="0.553223" y="0.637573" width="26.8123" height="33.6012" filterUnits="userSpaceOnUse" color-interpolation-filters="sRGB">
<feFlood flood-opacity="0" result="BackgroundImageFix"/>
<feColorMatrix in="SourceAlpha" type="matrix" values="0 0 0 0 0 0 0 0 0 0 0 0 0 0 0 0 0 0 127 0" result="hardAlpha"/>
<feOffset dy="4"/>
<feGaussianBlur stdDeviation="3"/>
<feComposite in2="hardAlpha" operator="out"/>
<feColorMatrix type="matrix" values="0 0 0 0 0 0 0 0 0 0 0 0 0 0 0 0 0 0 0.25 0"/>
<feBlend mode="normal" in2="BackgroundImageFix" result="effect1_dropShadow_3426_21"/>
<feBlend mode="normal" in="SourceGraphic" in2="effect1_dropShadow_3426_21" result="shape"/>
</filter>
</defs>
</svg>
