<svg width="30" height="39" viewBox="0 0 30 39" fill="none" xmlns="http://www.w3.org/2000/svg">
<g filter="url(#filter0_d_3426_23)">
<path d="M14.4349 21.3872C19.4801 21.3872 23.5749 17.2371 23.5749 12.1296C23.5749 7.02208 19.4801 2.87195 14.4349 2.87195C11.7035 2.87195 8.98885 2.90679 6.29395 2.90679V7.5755H7.65899V16.6837H6.29395V21.3208C8.96986 21.3208 11.6857 21.3872 14.4349 21.3872V21.3872ZM12.4362 7.83571H14.4591C16.8478 7.83571 18.7976 9.80799 18.7976 12.2036C18.7976 14.6238 16.8477 16.5961 14.4591 16.5961H12.4362V7.83571Z" fill="#7E77AC"/>
</g>
<path d="M2.52246 38.4198V31.6307H5.32438C5.96649 31.6307 6.51455 31.7467 6.96856 31.9786C7.42258 32.2035 7.76958 32.5689 8.00955 33.075C8.24953 33.574 8.36952 34.2381 8.36952 35.0674C8.36952 36.2341 8.10684 37.0845 7.58148 37.6186C7.05612 38.1528 6.30376 38.4198 5.32438 38.4198H2.52246ZM4.35149 36.9018H5.09089C5.39573 36.9018 5.65192 36.8561 5.85947 36.7647C6.06702 36.6663 6.22592 36.4871 6.33618 36.2271C6.44645 35.96 6.50158 35.5735 6.50158 35.0674C6.50158 34.5614 6.44969 34.1714 6.34591 33.8973C6.24863 33.6161 6.09621 33.4229 5.88866 33.3174C5.68111 33.205 5.41518 33.1488 5.09089 33.1488H4.35149V36.9018Z" fill="#7E77AC"/>
<path d="M12.0558 38.5253C11.018 38.5253 10.2235 38.2512 9.67221 37.703C9.12739 37.1548 8.85498 36.2692 8.85498 35.0464C8.85498 34.203 8.97821 33.5248 9.22468 33.0117C9.47114 32.4916 9.83111 32.1156 10.3046 31.8837C10.7845 31.6447 11.3683 31.5253 12.0558 31.5253C12.7433 31.5253 13.3238 31.6447 13.7973 31.8837C14.2772 32.1156 14.6404 32.4916 14.8869 33.0117C15.1334 33.5248 15.2566 34.203 15.2566 35.0464C15.2566 36.2692 14.9809 37.1548 14.4296 37.703C13.8783 38.2512 13.087 38.5253 12.0558 38.5253ZM12.0558 36.8385C12.5228 36.8385 12.86 36.698 13.0676 36.4168C13.2816 36.1287 13.3886 35.6719 13.3886 35.0464C13.3886 34.3787 13.2816 33.9078 13.0676 33.6337C12.86 33.3526 12.5228 33.212 12.0558 33.212C11.5888 33.212 11.2483 33.3526 11.0343 33.6337C10.8267 33.9078 10.7229 34.3787 10.7229 35.0464C10.7229 35.6719 10.8267 36.1287 11.0343 36.4168C11.2483 36.698 11.5888 36.8385 12.0558 36.8385Z" fill="#7E77AC"/>
<path d="M19.1677 38.5253C18.0521 38.5253 17.2024 38.2301 16.6187 37.6397C16.035 37.0423 15.7431 36.1919 15.7431 35.0885C15.7431 33.95 16.0447 33.0715 16.6479 32.453C17.2511 31.8345 18.1332 31.5253 19.2942 31.5253C19.6833 31.5253 20.0335 31.5499 20.3449 31.5991C20.6627 31.6483 20.961 31.7221 21.2399 31.8204V33.5177C20.9545 33.3983 20.6594 33.3174 20.3546 33.2753C20.0498 33.2331 19.7384 33.212 19.4206 33.212C18.8174 33.212 18.3634 33.3596 18.0586 33.6548C17.7602 33.95 17.6111 34.4279 17.6111 35.0885C17.6111 35.707 17.7408 36.1533 18.0002 36.4274C18.2661 36.7015 18.6553 36.8385 19.1677 36.8385C19.3363 36.8385 19.4952 36.828 19.6444 36.8069C19.7936 36.7788 19.933 36.7436 20.0627 36.7015V35.7105H18.8174V34.4876H21.5902V37.9033C21.3502 38.0649 21.0291 38.209 20.627 38.3355C20.2314 38.462 19.7449 38.5253 19.1677 38.5253Z" fill="#7E77AC"/>
<path d="M22.2748 38.4198V31.6307H27.0225V33.1488H24.1038V34.2557H26.6625V35.7948H24.1038V36.9018H27.0225V38.4198H22.2748Z" fill="#7E77AC"/>
<defs>
<filter id="filter0_d_3426_23" x="0.293945" y="0.871948" width="29.281" height="30.5153" filterUnits="userSpaceOnUse" color-interpolation-filters="sRGB">
<feFlood flood-opacity="0" result="BackgroundImageFix"/>
<feColorMatrix in="SourceAlpha" type="matrix" values="0 0 0 0 0 0 0 0 0 0 0 0 0 0 0 0 0 0 127 0" result="hardAlpha"/>
<feOffset dy="4"/>
<feGaussianBlur stdDeviation="3"/>
<feComposite in2="hardAlpha" operator="out"/>
<feColorMatrix type="matrix" values="0 0 0 0 0 0 0 0 0 0 0 0 0 0 0 0 0 0 0.25 0"/>
<feBlend mode="normal" in2="BackgroundImageFix" result="effect1_dropShadow_3426_23"/>
<feBlend mode="normal" in="SourceGraphic" in2="effect1_dropShadow_3426_23" result="shape"/>
</filter>
</defs>
</svg>
