<svg width="23" height="38" viewBox="0 0 23 38" fill="none" xmlns="http://www.w3.org/2000/svg">
<path d="M5.12996 11.5219L2.59013 14.0637L0.0524902 11.5219L2.59013 8.98007L5.12996 11.5219ZM11.2875 5.34985L15.6361 9.70787L18.1738 7.16606L11.2875 0.268433L4.40116 7.16606L6.93879 9.70787L11.2875 5.34985ZM19.987 8.98007L17.4493 11.5219L19.987 14.0637L22.5224 11.5219L19.987 8.98007ZM11.2875 17.6939L6.93879 13.3381L4.40116 15.8777L11.2875 22.7753L18.1738 15.8777L15.6361 13.3381L11.2875 17.6939ZM11.2875 14.0637L13.8251 11.5219L11.2875 8.98007L8.74982 11.5219L11.2875 14.0637Z" fill="#7E77AC"/>
<path d="M1.52246 37.5253V30.5253H5.32964C6.05375 30.5253 6.59869 30.6919 6.96448 31.0253C7.33773 31.3586 7.52436 31.8296 7.52436 32.4383C7.52436 32.8079 7.44971 33.1195 7.30041 33.3731C7.15857 33.6195 6.96821 33.8115 6.72933 33.9492C7.05779 34.0651 7.31534 34.2354 7.50197 34.4601C7.68859 34.6847 7.7819 35.0216 7.7819 35.4709C7.7819 36.1376 7.58035 36.6485 7.17724 37.0035C6.77412 37.3514 6.19558 37.5253 5.44161 37.5253H1.52246ZM3.32527 33.3731H4.79215C5.10568 33.3731 5.33337 33.3043 5.4752 33.1666C5.61704 33.0289 5.68796 32.8369 5.68796 32.5905C5.68796 32.3224 5.61704 32.1231 5.4752 31.9927C5.33337 31.855 5.07582 31.7861 4.70257 31.7861H3.32527V33.3731ZM3.32527 36.2753H4.97131C5.29978 36.2753 5.54239 36.2101 5.69916 36.0796C5.86339 35.9492 5.9455 35.7173 5.9455 35.384C5.9455 35.1158 5.86712 34.9166 5.71035 34.7861C5.55359 34.6485 5.28485 34.5796 4.90413 34.5796H3.32527V36.2753Z" fill="#7E77AC"/>
<path d="M8.69591 37.5253V30.5253H10.2412L13.3093 34.7101V30.5253H15.1233V37.5253H13.5669L10.4987 33.3514V37.5253H8.69591Z" fill="#7E77AC"/>
<path d="M16.263 37.5253V30.5253H20.0702C20.7943 30.5253 21.3393 30.6919 21.705 31.0253C22.0783 31.3586 22.2649 31.8296 22.2649 32.4383C22.2649 32.8079 22.1903 33.1195 22.041 33.3731C21.8991 33.6195 21.7088 33.8115 21.4699 33.9492C21.7984 34.0651 22.0559 34.2354 22.2425 34.4601C22.4291 34.6847 22.5225 35.0216 22.5225 35.4709C22.5225 36.1376 22.3209 36.6485 21.9178 37.0035C21.5147 37.3514 20.9361 37.5253 20.1822 37.5253H16.263ZM18.0658 33.3731H19.5327C19.8462 33.3731 20.0739 33.3043 20.2158 33.1666C20.3576 33.0289 20.4285 32.8369 20.4285 32.5905C20.4285 32.3224 20.3576 32.1231 20.2158 31.9927C20.0739 31.855 19.8164 31.7861 19.4431 31.7861H18.0658V33.3731ZM18.0658 36.2753H19.7119C20.0403 36.2753 20.2829 36.2101 20.4397 36.0796C20.6039 35.9492 20.6861 35.7173 20.6861 35.384C20.6861 35.1158 20.6077 34.9166 20.4509 34.7861C20.2941 34.6485 20.0254 34.5796 19.6447 34.5796H18.0658V36.2753Z" fill="#7E77AC"/>
</svg>
